<svg width="50" height="50" viewBox="0 0 50 50" fill="none" xmlns="http://www.w3.org/2000/svg">
<path d="M47.5696 12.4615V37.5387C47.5696 40.199 46.5127 42.7504 44.6316 44.6316C42.7504 46.5127 40.199 47.5696 37.5387 47.5696H12.4615C9.80118 47.5696 7.24979 46.5127 5.36864 44.6316C3.48748 42.7504 2.43066 40.199 2.43066 37.5387V12.4615C2.43066 9.80118 3.48748 7.24979 5.36864 5.36864C7.24979 3.48748 9.80118 2.43066 12.4615 2.43066H37.5387C40.199 2.43066 42.7504 3.48748 44.6316 5.36864C46.5127 7.24979 47.5696 9.80118 47.5696 12.4615Z" stroke="#959595" stroke-width="4" stroke-linecap="round" stroke-linejoin="round"/>
<path d="M12.4614 35.031V25.0001M12.4614 25.0001V14.9692H17.4769C18.807 14.9692 20.0827 15.4976 21.0233 16.4382C21.9639 17.3788 22.4923 18.6545 22.4923 19.9847C22.4923 21.3148 21.9639 22.5905 21.0233 23.5311C20.0827 24.4717 18.807 25.0001 17.4769 25.0001H12.4614ZM37.5386 22.4924C36.7712 20.9552 35.1989 19.9847 33.4811 19.9847H32.5232C31.5255 19.9847 30.5688 20.381 29.8633 21.0864C29.1579 21.7918 28.7616 22.7486 28.7616 23.7462C28.7616 24.7439 29.1579 25.7006 29.8633 26.4061C30.5688 27.1115 31.5255 27.5078 32.5232 27.5078H33.777C34.7746 27.5078 35.7314 27.9041 36.4368 28.6096C37.1423 29.315 37.5386 30.2718 37.5386 31.2694C37.5386 32.267 37.1423 33.2238 36.4368 33.9292C35.7314 34.6347 34.7746 35.031 33.777 35.031H32.8191C31.9766 35.031 31.1508 34.7963 30.4341 34.3534C29.7175 33.9105 29.1383 33.2768 28.7616 32.5233" stroke="#959595" stroke-width="4" stroke-linecap="round" stroke-linejoin="round"/>
</svg>
