<svg width="38" height="53" viewBox="0 0 38 53" fill="none" xmlns="http://www.w3.org/2000/svg">
<path fill-rule="evenodd" clip-rule="evenodd" d="M20.881 34.4585C22.6182 35.8519 24.7698 36.6274 26.9966 36.6628C29.2233 36.6981 31.3985 35.9912 33.179 34.6535C34.9595 33.3159 36.2442 31.4236 36.8303 29.2751C37.4165 27.1266 37.2708 24.8442 36.4163 22.7876C35.7017 21.0605 34.5187 19.5674 33.0008 18.4768C34.2956 17.5487 35.3506 16.3252 36.078 14.9078C36.8055 13.4904 37.1845 11.9199 37.1836 10.3268C37.1836 7.66641 36.1268 5.11502 34.2457 3.23387C32.3645 1.35272 29.8131 0.295899 27.1528 0.295899H10.8526C8.72895 0.295285 6.6599 0.968686 4.94341 2.21912C3.22692 3.46956 1.95158 5.23251 1.30106 7.25407C0.650531 9.27564 0.658387 11.4515 1.32349 13.4683C1.9886 15.4851 3.27664 17.2388 5.00211 18.4768C3.70775 19.4055 2.65319 20.6292 1.92573 22.0464C1.19828 23.4637 0.818848 25.0339 0.818848 26.6269C0.818848 28.22 1.19828 29.7901 1.92573 31.2074C2.65319 32.6247 3.70775 33.8483 5.00211 34.777C3.60565 35.779 2.4901 37.1231 1.76247 38.6803C1.03483 40.2374 0.719513 41.9554 0.846768 43.6695C0.974023 45.3835 1.53958 47.0361 2.48918 48.4688C3.43879 49.9014 4.74059 51.066 6.2697 51.8508C7.79882 52.6357 9.50396 53.0144 11.2216 52.9508C12.9391 52.8871 14.6116 52.3832 16.0784 51.4874C17.5452 50.5915 18.7573 49.3337 19.5983 47.8348C20.4392 46.3358 20.8809 44.6459 20.881 42.9271V34.4585ZM10.8501 4.05747C9.18738 4.05747 7.59276 4.71799 6.41704 5.89371C5.24132 7.06943 4.58081 8.66405 4.58081 10.3268C4.58081 11.9895 5.24132 13.5841 6.41704 14.7598C7.59276 15.9355 9.18738 16.5961 10.8501 16.5961H17.1194V4.05747H10.8501ZM17.1194 36.6578H10.8501C9.61015 36.6578 8.39805 37.0255 7.36707 37.7144C6.33609 38.4032 5.53254 39.3824 5.05803 40.5279C4.58352 41.6735 4.45937 42.934 4.70127 44.1502C4.94318 45.3663 5.54027 46.4834 6.41704 47.3601C7.29382 48.2369 8.4109 48.834 9.62702 49.0759C10.8431 49.3178 12.1037 49.1937 13.2493 48.7192C14.3948 48.2446 15.3739 47.4411 16.0628 46.4101C16.7517 45.3791 17.1194 44.167 17.1194 42.9271V36.6578ZM10.8501 20.3576C9.18738 20.3576 7.59276 21.0181 6.41704 22.1939C5.24132 23.3696 4.58081 24.9642 4.58081 26.6269C4.58081 28.2896 5.24132 29.8843 6.41704 31.06C7.59276 32.2357 9.18738 32.8962 10.8501 32.8962H17.1194V20.3576H10.8501ZM20.881 26.6269C20.881 28.29 21.5416 29.8849 22.7176 31.0609C23.8935 32.2368 25.4885 32.8975 27.1515 32.8975C28.8146 32.8975 30.4095 32.2368 31.5855 31.0609C32.7614 29.8849 33.4221 28.29 33.4221 26.6269C33.4221 24.9639 32.7614 23.3689 31.5855 22.193C30.4095 21.017 28.8146 20.3564 27.1515 20.3564C25.4885 20.3564 23.8935 21.017 22.7176 22.193C21.5416 23.3689 20.881 24.9639 20.881 26.6269ZM27.1503 16.5961C28.813 16.5961 30.4076 15.9355 31.5833 14.7598C32.759 13.5841 33.4195 11.9895 33.4195 10.3268C33.4195 8.66405 32.759 7.06943 31.5833 5.89371C30.4076 4.71799 28.813 4.05747 27.1503 4.05747H20.881V16.5961H27.1503Z" fill="#959595"/>
</svg>
