<svg width="50" height="50" viewBox="0 0 50 50" fill="none" xmlns="http://www.w3.org/2000/svg">
<path d="M12.4615 14.9692L22.4924 35.031M12.4615 35.031L22.4924 14.9692M47.5696 12.4615V37.5387C47.5696 40.199 46.5127 42.7504 44.6316 44.6316C42.7504 46.5127 40.199 47.5696 37.5387 47.5696H12.4615C9.80118 47.5696 7.24979 46.5127 5.36864 44.6316C3.48748 42.7504 2.43066 40.199 2.43066 37.5387V12.4615C2.43066 9.80118 3.48748 7.24979 5.36864 5.36864C7.24979 3.48748 9.80118 2.43066 12.4615 2.43066H37.5387C40.199 2.43066 42.7504 3.48748 44.6316 5.36864C46.5127 7.24979 47.5696 9.80118 47.5696 12.4615Z" stroke="#959595" stroke-width="4" stroke-linecap="round" stroke-linejoin="round"/>
<path d="M37.5387 25.0002V33.5264C37.5387 33.724 37.4998 33.9197 37.4241 34.1022C37.3485 34.2848 37.2377 34.4507 37.098 34.5904C36.9583 34.7301 36.7924 34.8409 36.6098 34.9165C36.4273 34.9921 36.2316 35.0311 36.034 35.0311H32.5232C31.1931 35.0311 29.9174 34.5027 28.9768 33.5621C28.0362 32.6215 27.5078 31.3458 27.5078 30.0156C27.5078 28.6855 28.0362 27.4098 28.9768 26.4692C29.9174 25.5286 31.1931 25.0002 32.5232 25.0002H37.5387ZM37.5387 25.0002V17.4771" stroke="#959595" stroke-width="4" stroke-linecap="round" stroke-linejoin="round"/>
</svg>
